<svg preserveAspectRatio="xMidYMid meet" viewBox="337.45714285714286 200.528 223.2 232.39999999999998" version="1.0" xmlns="http://www.w3.org/2000/svg" style="max-height: 500px" width="223.2" height="232.39999999999998">

<g stroke="none" fill="#1e5631" transform="translate(0.000000,664.000000) scale(0.100000,-0.100000)">
<path fill="#1e5631" d="M0 3320 l0 -3320 4650 0 4650 0 0 3320 0 3320 -4650 0 -4650 0 0 -3320z m4270 806 l0 -164 -32 -13 c-38 -15 -135 -92 -170 -134 -14 -17 -40 -54 -58 -82 l-32 -53 -165 0 -164 0 6 23 c76 249 262 455 498 553 126 52 117 61 117 -130z m576 109 c117 -56 220 -138 297 -234 60 -75 141 -229 153 -290 l7 -31 -166 0 -165 0 -23 47 c-30 63 -141 174 -206 207 l-53 26 0 166 0 167 33 -7 c17 -4 73 -26 123 -51z m-296 -627 c61 -31 92 -86 87 -151 -10 -114 -128 -180 -233 -131 -49 23 -77 68 -82 129 -11 130 111 212 228 153z m-540 -405 c42 -74 141 -173 208 -207 l52 -26 0 -160 c0 -87 -4 -161 -8 -164 -13 -8 -157 49 -219 86 -172 104 -301 259 -364 438 -15 43 -25 80 -23 83 3 3 77 6 164 6 l158 2 32 -58z m1290 36 c0 -28 -54 -151 -97 -222 -72 -119 -212 -247 -343 -312 -45 -23 -153 -65 -167 -65 -1 0 -3 73 -3 163 l0 163 82 55 c79 52 145 124 190 208 l18 32 160 -2 c152 -1 160 -2 160 -20z"/>
</g>
</svg>